<?xml version="1.0"?><svg xmlns="http://www.w3.org/2000/svg" viewBox="0 0 128 128"><g fill="#1d1d1b"><path d="m92.36 43.2c-3.45 1.83-14.13 12.73-16.61 13.05s-9.92-7.12-15.43-10.79c-5.5-3.67-8.52-2.16-11.97 1.73-3.45 3.88-16.99 26.4-18.88 29.23-3.45 5.18 2.37 7.87 5.72 6.69 3.34-1.19 18.66-13.92 19.96-14.13 1.29-.22 6.04 6.15 11.54 9.92 5.5 3.78 11.76 1.94 13.92-.86s17.37-25.57 18.66-30.31c1.29-4.75-3.45-6.36-6.9-4.53zm2.15 7.88c-.43.76-7.23 10.57-10.46 15.64-3.24 5.07-7.12 10.68-11.33 10.25s-12.3-9.28-14.78-10.68-4.32-1.08-7.55 1.73c-3.24 2.8-12.62 10.03-13.38 10.14-.75.11-.75-.54-.22-2.16.49-1.48 11.76-17.37 15.1-21.14 3.34-3.78 4.85-4.31 7.98-3.88s12.62 8.2 15.75 9.82 18.45-13.48 19.42-13.59-.11 3.13-.54 3.88zm20.18-13.7c-10.79-22.01-31.57-34.95-54.16-33.23-57.93 4.43-56.63 54.91-51.34 70.77s16.29 25.03 16.29 25.03-.43 14.13 0 15.21 5.18 5.83 6.8 7.34 3.13 2.05 6.47.86 12.84-5.29 12.84-5.29c28.37 8.85 50.59-6.26 60.3-20.71 9.71-14.46 13.59-37.97 2.8-59.98zm-12.63 59.76c-17.04 14.24-32.79 19.2-53.07 12.3 0 0-1.19 0-4.32 1.73s-9.92 4.32-11.65 4.85c-1.73.54-3.67-1.19-3.88-2.37-.22-1.19.75-13.48-.65-15.1s-16.29-16.07-18.34-34.09c-2.05-18.01 4.75-50.48 49.73-56.31 22.18-2.87 43.26 12.94 51.35 30.31s7.87 44.44-9.17 58.68z"/><path d="m30 23.57c.63-.19 1.62 1.83 1.73 2.37s-5.61 5.5-8.09 9.06-2.59 9.6-3.24 9.82-3.02-.65-3.45-1.29 2.37-7.98 4.31-10.68 7.34-8.85 8.74-9.28z"/><path d="m56.97 100.27c-.33-.57 1.51-2.05 2.91-1.62s6.8 8.74 6.47 9.6c-.32.86-2.05.86-2.8.54-.76-.32-6.15-7.77-6.58-8.52z"/><path d="m64.2 97.25c-.33-.57 1.51-2.05 2.91-1.62s9.49 11.87 9.17 12.73-2.05.86-2.8.54c-.76-.32-8.85-10.9-9.28-11.65z"/><path d="m70.03 94.12c-.33-.57 1.51-2.05 2.91-1.62s8.52 11.76 8.2 12.62-2.05.86-2.8.54-7.87-10.79-8.31-11.54z"/><path d="m78.66 90.56c-.33-.57 1.51-2.05 2.91-1.62s9.6 10.9 9.28 11.76-2.05.86-2.8.54-8.95-9.92-9.38-10.68z"/><path d="m85.24 87.11c-.33-.57 1.51-2.05 2.91-1.62s9.6 10.9 9.28 11.76-2.05.86-2.8.54c-.76-.32-8.95-9.92-9.38-10.68z"/><path d="m92.36 79.66c-.33-.57 1.51-2.05 2.91-1.62s9.6 10.9 9.28 11.76-2.05.86-2.8.54c-.76-.32-8.95-9.92-9.38-10.68z"/><path d="m97.64 74.27c-.33-.57 1.51-2.05 2.91-1.62s7.01 7.44 6.69 8.31-1.29 1.83-2.05 1.51-7.12-7.44-7.55-8.2z"/><path d="m99.96 65.88c-.44-1.2 2.02-2.59 2.51-2.51s9.47 8.58 9.38 9.71-1.13 2.02-1.78 2.1-9.47-7.52-10.11-9.3z"/><path d="m103.12 59.41c-.4-.8 1.62-3.07 2.18-2.91.57.16 6.63 6.63 6.8 7.36.16.73-.49 1.46-1.29 1.7s-7.36-5.5-7.69-6.15z"/><path d="m105.87 51.97c-.15-.49.49-2.67 1.62-2.67s4.29 2.91 4.69 4.05.08 2.43-.89 2.59-5.18-3.16-5.42-3.96z"/></g></svg>