<?xml version="1.0"?><svg xmlns="http://www.w3.org/2000/svg" viewBox="0 0 128 128"><g fill="#1d1d1b"><path d="m36.12 51.31c-2.48 0-3.22 1.57-3.14 3.14 0 0-.33 24.94-.25 28.4.08 3.47.91 5.2 2.89 5.28s2.31-1.82 2.56-3.63c.25-1.82.83-25.18.74-27.74-.08-2.56-.33-5.45-2.81-5.45zm-8.01 7.76c-1.98 0-3.14 1.32-3.14 2.97 0 0-.17 16.84-.17 19.73s.17 6.52 3.22 6.19c3.06-.33 3.14-4.62 3.14-4.62v-20.89c0-1.73-1.07-3.39-3.06-3.39zm-16.01 4.46c-1.65.08-3.47.66-3.55 3.8 0 0-.17 9.25-.17 12.72s1.57 6.03 3.47 6.03 2.81-.99 3.05-1.73c.25-.74.33-13.54.25-17.01s-1.4-3.88-3.06-3.8zm7.43-2.64c-1.9.25-1.65.99-2.23 2.56 0 0-.17 14.53-.25 18.41s.25 5.12 2.64 5.04 2.72-1.65 2.72-2.72.17-16.35.17-18.41-1.16-5.12-3.06-4.87zm24.85-12.14c-2.56 0-3.06 2.23-3.39 4.46 0 0-.41 24.94-.33 28.73s.74 6.52 2.97 6.28c2.23-.25 2.23-1.9 2.48-4.54s.74-26.5.83-29.89c.08-3.39 0-5.04-2.56-5.04zm6.85.58c-1.82.08-2.64 1.49-2.72 3.63 0 0-.74 26.67-.74 31.21s1.65 5.2 3.72 5.2 2.31-1.9 2.56-4.29.41-27.25.17-30.8c-.25-3.55-1.16-5.04-2.97-4.95zm7.77-3.06c-1.82 0-2.89 1.73-2.72 4.05 0 0-.33 30.22-.41 34.27s1.32 5.53 3.88 5.37c2.56-.17 2.31-2.89 2.48-4.54s-.25-33.52-.25-36.25-1.16-2.89-2.97-2.89zm60.02 21.72c-2.97-14.78-18.83-11.72-18.83-11.72-9.74-17.17-24.69-19.57-29.97-18.74s-6.44 4.79-6.44 8.75c0 0 .17 35.92.17 39.47s.91 4.95 4.13 4.87 22.29.08 33.85-.25 20.06-7.6 17.09-22.38zm-20.23 15.52c-14.61.41-31.46.5-31.46.5s-.41-35.34-.41-37.57 2.31-6.28 8.5-5.53c6.19.74 13.38 5.12 17.09 10.24 3.72 5.12 5.12 8.92 5.53 9.08.41.17.58.25.83.17s5.12-2.23 10.24.17c5.12 2.39 6.85 5.94 6.85 11.06s-2.56 11.48-17.17 11.89z"/><path d="m71.22 44.24c.63-.2 4.02-.61 7.43 0s5.45 2.37 5.56 3.3-.94 1.65-1.82 1.76-.55-1.49-5.45-1.82-5.06-.11-6.11-.28-.99-2.53.39-2.97z"/><path d="m97.2 78.2c-.32-.45.94-2.53 2.26-1.98s3.63 3.3 3.63 3.91-1.05 1.1-1.82 1.05-3.69-2.42-4.07-2.97z"/><path d="m100.72 75.17c-.51-.59 1.43-2.09 2.09-1.98s6.22 5.28 6.22 6-1.82.94-2.64.88-5.28-4.46-5.67-4.9z"/><path d="m103.09 71.21c-.39-.79 1.54-1.98 2.37-1.82s7.21 5.83 7.21 6.44-1.32 1.6-1.87 1.49-7.43-5.56-7.71-6.11z"/><path d="m107.05 67.91c-.26-.62 1.16-1.49 1.98-1.54s3.8 2.53 4.13 3.63.11 1.76-1.27 1.65-4.57-3.08-4.84-3.74z"/></g></svg>