<?xml version="1.0"?><svg xmlns="http://www.w3.org/2000/svg" viewBox="0 0 128 128"><g fill="#1d1d1b"><path d="m87.55 79.3c-4.28-3.01-9.43-5.07-20.21-5.86s-21.16-.63-28.53 1.43-10.19 5.99-8.72 9.75c.87 2.22 3.96 5.55 9.35 4.2s10.46-2.14 20.6-2.06 16.01 1.58 21.63 3.88 9.51 1.74 10.54-2.06-.4-6.26-4.68-9.27zm-.31 9.43c-1.11.48-5.86-3.57-20.44-4.99-14.58-1.43-25.83 1.19-27.65 1.9s-6.34-.87-3.49-3.8c.83-.85 8.48-5.47 22.58-4.99s23.06 4.75 26.31 7.61c3.25 2.85 3.8 3.8 2.69 4.28zm1.98-50.87c-10.54-3.8-32.96-7.77-49.21-4.83-16.24 2.93-19.13 9.6-18.86 12.28.4 3.96 2.77 6.58 8.8 6.26 6.02-.32 11.25-2.22 31.54-1.51s30.67 6.02 37.8 8.72c7.13 2.69 11.01-2.93 9.03-7.37s-8.56-9.75-19.1-13.55zm11.88 18.3c-5.94-1.11-18.07-8.56-39.62-9.19-24.17-.71-28.45 1.03-30.98 1.43-2.54.4-4.44-.87-3.33-2.69.85-1.4 5.86-7.13 23.85-7.37s38.75 6.34 47.07 10.54 8.95 8.4 3.01 7.29zm13.4-21.02c-12.47-22.4-34.47-32.12-53.57-31.06-20.92 1.16-31.8 8.14-41.94 18.7s-17.43 30.53-12.05 49.97c5.39 19.44 19.76 44.06 47.01 49.87 27.26 5.81 49.02-7.5 59.8-24.93s13.21-40.15.74-62.54zm-12.89 64.45c-16.06 14.9-44.37 18.81-63.71 7.4-19.33-11.41-27.79-28.21-29.05-43.53-1.27-15.32 5.71-53.67 52.83-56.1 17.94-.93 37.19 9.09 49.66 29.37s6.34 47.97-9.72 62.86zm-5.58-37.17c-6.97-5.78-20.84-9.43-39.78-9.43s-25.18 5.01-27.97 7.61c-1.11 1.03-4.12 3.8-2.54 6.5 1.58 2.69 5.15 3.41 8.16 2.14s7.92-3.01 22.58-2.93 21.87 3.8 29.24 6.74c7.37 2.93 12.2 3.09 14.42.63s2.85-5.47-4.12-11.25zm1.11 9.83c-.55.95-3.65 1.35-9.67-1.58s-13.87-6.26-28.68-6.89c-14.82-.63-19.33.24-23.77 1.74-4.03 1.37-7.61 1.43-3.01-2.54 2.32-2 7.69-5.78 25.44-5.7s27.73 3.57 33.44 7.13c5.71 3.57 6.81 6.89 6.26 7.84z"/><path d="m42.23 15.81c.89-.15 2.01 1.48 1.69 2.32-.32.85-6.87 2.96-11.62 6.76s-7.92 9.61-9.3 10.04-2.75-1.16-2.32-2.22c.42-1.06 4.65-6.55 8.77-9.83s10.88-6.76 12.78-7.08z"/><path d="m48.62 103.39c-.31-.61 1.85-2.64 2.85-2.27s5.86 6.97 5.86 7.77-1.53 1.32-2.11 1.06-6.02-5.39-6.6-6.55z"/><path d="m55.44 100.75c-.31-.61 1.85-2.64 2.85-2.27s9.61 10.62 9.61 11.41-1.53 1.32-2.11 1.06-9.77-9.03-10.35-10.2z"/><path d="m64.63 100.85c-.31-.61 1.85-2.64 2.85-2.27s8.24 9.09 8.24 9.88-1.53 1.32-2.11 1.06-8.4-7.5-8.98-8.66z"/><path d="m73.19 100.43c-.31-.61 1.85-2.64 2.85-2.27s6.29 6.81 6.29 7.61-1.53 1.32-2.11 1.06-6.44-5.23-7.03-6.39z"/><path d="m82.01 100.59c-.31-.61 1.85-2.64 2.85-2.27s4.6 5.12 4.6 5.92-1.53 1.32-2.11 1.06-4.75-3.54-5.34-4.7z"/><path d="m100.81 80.36c-.31-.61 1.85-2.64 2.85-2.27s5.76 5.86 5.76 6.66-1.53 1.32-2.11 1.06-5.92-4.28-6.5-5.44z"/><path d="m104.46 75.6c-.31-.61 1.85-2.64 2.85-2.27s5.23 5.07 5.23 5.86-1.53 1.32-2.11 1.06-5.39-3.49-5.97-4.65z"/><path d="m105.73 69.16c-.31-.61 1.85-2.64 2.85-2.27s5.49 5.6 5.49 6.39-1.53 1.32-2.11 1.06-5.65-4.01-6.23-5.18z"/><path d="m108.1 63.56c-.31-.61 1.85-2.64 2.85-2.27s4.28 4.6 4.28 5.39-1.53 1.32-2.11 1.06-4.44-3.01-5.02-4.17z"/><path d="m110.96 59.17c-.31-.61 1.85-2.64 2.85-2.27s1.8 2.38 1.8 3.17-1.53 1.32-2.11 1.06-1.95-.79-2.54-1.95z"/><path d="m88.08 99c-.31-.61 1.85-2.64 2.85-2.27s2.96 3.54 2.96 4.33-1.53 1.32-2.11 1.06-3.12-1.95-3.7-3.12z"/></g></svg>